<?xml version="1.0" encoding="utf-8"?>
<!-- Generator: Adobe Illustrator 21.0.0, SVG Export Plug-In . SVG Version: 6.00 Build 0)  -->
<svg version="1.1" id="Layer_1" xmlns="http://www.w3.org/2000/svg" xmlns:xlink="http://www.w3.org/1999/xlink" x="0px" y="0px"
	 viewBox="0 0 100 125" style="enable-background:new 0 0 100 125;" xml:space="preserve">
<style type="text/css">
	.st0{fill:#942B20;}
</style>
<path class="st0" d="M49.8,17.6c-24.9,0-45,20.1-45,45s20.1,45,45,45s45-20.1,45-45S74.6,17.6,49.8,17.6z M49.8,94.6
	c-17.6,0-32-14.4-32-32c0-17.6,14.4-32,32-32s32,14.4,32,32S67.4,94.6,49.8,94.6z M49.8,68.6c-3.3,0-6-2.7-6-6c0-3.3,2.7-6,6-6
	c3.3,0,6,2.7,6,6C55.8,65.9,53.1,68.6,49.8,68.6z M49.8,35.6c3.1,0,6.3,0.8,6.3,0.8c1.3,0.3,1.9,1.6,1.2,2.8L51,50
	c-0.7,1.2-1.8,1.2-2.5,0l-6.2-10.7c-0.7-1.2-0.2-2.4,1.2-2.8C43.5,36.5,46.7,35.6,49.8,35.6z M48.5,75.3c0.7-1.2,1.8-1.2,2.5,0
	L57.2,86c0.7,1.2,0.2,2.4-1.2,2.8c0,0-3.2,0.8-6.3,0.8c-3.1,0-6.3-0.8-6.3-0.8c-1.3-0.3-1.9-1.6-1.2-2.8L48.5,75.3z M26.4,49.1
	c1.5-2.6,3.9-5,3.9-5c1-1,2.3-0.8,3,0.4l6.2,10.7c0.7,1.2,0.1,2.2-1.3,2.2l-12.4,0c-1.4,0-2.2-1.1-1.8-2.4
	C24,55,24.8,51.8,26.4,49.1z M60.1,70c-0.7-1.2-0.1-2.2,1.3-2.2l12.4,0c1.4,0,2.2,1.1,1.8,2.4c0,0-0.9,3.2-2.4,5.9
	c-1.5,2.6-3.9,5-3.9,5c-1,1-2.3,0.8-3-0.4L60.1,70z M26.4,76.1c-1.5-2.6-2.4-5.9-2.4-5.9c-0.4-1.3,0.5-2.4,1.8-2.4l12.4,0
	c1.4,0,1.9,1,1.2,2.2l-6.2,10.7c-0.7,1.2-2,1.4-3,0.4C30.2,81.2,27.9,78.8,26.4,76.1z M61.3,57.4c-1.4,0-1.9-1-1.2-2.2l6.2-10.7
	c0.7-1.2,2-1.4,3-0.4c0,0,2.3,2.4,3.9,5c1.5,2.6,2.4,5.9,2.4,5.9c0.4,1.3-0.5,2.4-1.8,2.4L61.3,57.4z"/>
</svg>
