<?xml version="1.0" encoding="utf-8"?>
<!-- Generator: Adobe Illustrator 21.0.0, SVG Export Plug-In . SVG Version: 6.00 Build 0)  -->
<svg version="1.1" id="Layer_1" xmlns="http://www.w3.org/2000/svg" xmlns:xlink="http://www.w3.org/1999/xlink" x="0px" y="0px"
	 viewBox="0 0 264 317.5" style="enable-background:new 0 0 264 317.5;" xml:space="preserve">
<style type="text/css">
	.st0{fill:#942B20;}
</style>
<path class="st0" d="M254.2,107c-1.2-4.3-5.2-5.8-9.2-5.2c-7.7,1.1-15.3,2.1-23,3.2c2.5-4.4,5-8.7,7.5-13.1c4.8-8.4-8.2-16-13-7.6
	c-4.4,7.8-8.9,15.5-13.3,23.3c-4.3,0.6-8.6,1.2-12.9,1.8c2.1-4.4,4.1-8.8,6.2-13.2c4.1-8.7-8.8-16.3-13-7.6
	c-3.6,7.7-7.3,15.5-10.9,23.2c-1.7,0.2-3.4,0.5-5.2,0.7c-4.6,0.6-9.1,1.3-13.7,1.9l-8.9-11.4c1.8-4.5,3.7-9,5.5-13.5
	c10.2-2.3,20.4-4.6,30.6-6.9c9.4-2.1,5.4-16.6-4-14.5c-6.6,1.5-13.1,2.9-19.7,4.4c2-4.9,4-9.8,6-14.6c7.6-3,15.1-6.1,22.7-9.1
	c3.7-1.5,6.4-5,5.2-9.2c-1-3.6-5.4-6.8-9.2-5.2c-3.6,1.5-7.2,2.9-10.8,4.4c2.7-6.6,5.4-13.2,8.1-19.7c1.5-3.8-1.7-8.2-5.2-9.2
	c-4.3-1.2-7.7,1.5-9.2,5.2c-3.1,7.5-6.1,15-9.2,22.5c-3.1-3.9-6.2-7.9-9.3-11.8c-2.5-3.2-8-2.6-10.6,0c-3.2,3.2-2.5,7.4,0,10.6
	c4.5,5.7,8.9,11.4,13.4,17.1c-1.6,3.8-3.1,7.6-4.7,11.4c-2.6-3.5-5.3-7-7.9-10.6c-2.4-3.2-6.5-4.9-10.3-2.7c-3.2,1.9-5.1,7-2.7,10.3
	c4.8,6.3,9.5,12.7,14.3,19c-1.2,2.9-2.4,5.8-3.6,8.7c-1.6,3.9-3.2,7.7-4.8,11.6l-8.4,1.2c-3.8-4.7-7.6-9.5-11.4-14.2
	c2.2-8,4.3-16.1,6.5-24.1c2.5-9.3-11.9-13.3-14.5-4c-1.2,4.5-2.5,9.1-3.7,13.6c-2.2-2.7-4.3-5.4-6.5-8.1c1.9-8.5,3.8-17,5.7-25.6
	c2.1-9.4-12.4-13.4-14.5-4c-1.1,4.9-2.2,9.7-3.2,14.6c-4.9-6.3-10-12.6-15.1-18.9c-2.6-3.2-7.9-2.6-10.6,0c-3.2,3.1-2.5,7.5,0,10.6
	c4.5,5.6,9.1,11.3,13.6,16.9C61.6,59,55.8,58.7,50,58.5c-9.7-0.4-9.6,14.6,0,15c9.9,0.4,19.9,0.8,29.8,1.3c2.4,3,4.8,6,7.2,8.9
	c-6.1,0.6-12.2,1.2-18.3,1.8c-4,0.4-7.5,3.2-7.5,7.5c0,3.7,3.4,7.9,7.5,7.5c9.8-1,19.7-1.9,29.5-2.9c2,2.5,3.9,4.9,5.9,7.4
	c1.3,1.6,2.6,3.2,3.9,4.8l-4.7,11.7c-5.3,0.7-10.6,1.5-15.9,2.2c-6.7-5.7-13.4-11.3-20.1-17c-7.3-6.2-18,4.4-10.6,10.6
	c3.6,3.1,7.2,6.1,10.8,9.2c-5.7,0.8-11.4,1.6-17.1,2.4c-4.7-6-9.4-12.1-14.2-18.1c-2.5-3.2-8-2.6-10.6,0c-3.2,3.2-2.5,7.4,0,10.6
	c2.6,3.3,5.2,6.6,7.7,9.9c-6.1,0.9-12.3,1.7-18.4,2.6c-4,0.6-6.2,5.7-5.2,9.2c1.2,4.3,5.2,5.8,9.2,5.2c5.2-0.7,10.4-1.5,15.7-2.2
	c-2.4,5.1-4.7,10.1-7.1,15.2c-4.1,8.7,8.8,16.3,13,7.6c3.9-8.4,7.9-16.8,11.8-25.2c6.3-0.9,12.6-1.7,18.8-2.6
	c-3.6,6.4-7.3,12.8-10.9,19.2c-4.8,8.4,8.2,16,13,7.6c5.5-9.8,11.1-19.6,16.6-29.4c2.2-0.3,4.5-0.6,6.7-0.9c1.5-0.2,3.1-0.4,4.6-0.6
	l9,11.6c-2.6,6.4-5.2,12.8-7.9,19.2c-9.3,2.4-18.5,4.8-27.8,7.2s-5.4,16.9,4,14.5c5.6-1.4,11.1-2.9,16.7-4.3
	c-1.6,3.9-3.2,7.9-4.8,11.8c-8.6,2-17.1,4.1-25.7,6.1c-9.4,2.2-5.4,16.7,4,14.5c4.9-1.2,9.8-2.3,14.7-3.5
	c-2.9,7.1-5.8,14.1-8.7,21.2c-1.5,3.8,1.7,8.2,5.2,9.2c4.3,1.2,7.7-1.5,9.2-5.2c2.6-6.3,5.2-12.6,7.8-19c2.8,4.9,5.7,9.8,8.5,14.7
	c4.8,8.4,17.8,0.8,13-7.6c-4.8-8.2-9.5-16.5-14.3-24.7c2-5,4.1-9.9,6.1-14.9c3.4,5.4,6.9,10.8,10.3,16.1c5.2,8.1,18.2,0.6,13-7.6
	c-5.4-8.5-10.9-17-16.3-25.6c0.8-2.1,1.7-4.1,2.5-6.2c0.9-2.2,1.8-4.4,2.7-6.6l21.9-3c3.3,4.1,6.7,8.3,10,12.4
	c-2.7,8.3-5.5,16.5-8.2,24.8c-3,9.2,11.4,13.1,14.5,4c1.6-5,3.3-9.9,4.9-14.9c3.3,4.1,6.6,8.1,9.8,12.2c-3.2,8.2-6.5,16.4-9.7,24.7
	c-1.5,3.8,1.6,8.2,5.2,9.2c4.2,1.2,7.7-1.5,9.2-5.2c2-5.1,4-10.2,6-15.3c5.5,6.9,11.1,13.7,16.6,20.6c2.6,3.2,7.9,2.6,10.6,0
	c3.2-3.1,2.5-7.5,0-10.6c-4.9-6.1-9.8-12.1-14.6-18.2c5-0.3,9.9-0.7,14.9-1c9.6-0.7,9.7-15.7,0-15c-8.8,0.6-17.5,1.2-26.3,1.8
	c-3.4-4.2-6.7-8.4-10.1-12.6c4.1-0.4,8.2-0.8,12.3-1.3c4-0.4,7.5-3.1,7.5-7.5c0-3.7-3.4-7.9-7.5-7.5c-7.8,0.8-15.6,1.6-23.4,2.4
	c-1-1.3-2.1-2.6-3.1-3.9c-2.9-3.6-5.8-7.2-8.7-10.8l5.9-14.6c5-0.7,10-1.4,15.1-2.1c6.9,6.6,13.8,13.2,20.6,19.8
	c7,6.7,17.6-3.9,10.6-10.6c-4.1-3.9-8.2-7.9-12.3-11.8c4-0.6,8-1.1,11.9-1.7c6.8,5,13.5,10.1,20.3,15.1c3.3,2.4,8.4,0.5,10.3-2.7
	c2.2-3.8,0.6-7.8-2.7-10.3c-2.3-1.7-4.5-3.4-6.8-5.1c7.3-1,14.7-2,22-3.1C253,115.7,255.2,110.5,254.2,107z"/>
</svg>
