<?xml version="1.0" encoding="utf-8"?>
<!-- Generator: Adobe Illustrator 21.0.0, SVG Export Plug-In . SVG Version: 6.00 Build 0)  -->
<svg version="1.1" id="Layer_1" xmlns="http://www.w3.org/2000/svg" xmlns:xlink="http://www.w3.org/1999/xlink" x="0px" y="0px"
	 viewBox="0 0 120 150" style="enable-background:new 0 0 120 150;" xml:space="preserve">
<style type="text/css">
	.st0{fill:#FCFCFC;}
</style>
<path class="st0" d="M110,91.8c0.2,2.6-0.6,4.9-2.3,6.5l-5.9,5.8c-7.1,7.1-19.3,7.4-29,0.8c-19-13-45-38.8-58.1-57.7
	c-6.6-9.6-6.3-21.7,0.8-28.8l5.9-5.8c1.5-1.5,3.6-2.3,5.8-2.3c0.3,0,0.5,0,0.7,0c3.3,0.3,6.4,2.1,8.5,4.9l8.8,12
	c1.3,1.7,1.3,3.8,0.1,5.1L38.6,39c-3,3-3.3,7.8-0.8,11.9c6.6,10.6,20.7,24.7,31.5,31.3c4,2.5,8.9,2.1,11.9-0.8l6.7-6.7
	c1.3-1.2,3.4-1.2,5.1,0l12,8.7C107.9,85.4,109.7,88.6,110,91.8z"/>
</svg>
