<?xml version="1.0" encoding="utf-8"?>
<!-- Generator: Adobe Illustrator 21.0.0, SVG Export Plug-In . SVG Version: 6.00 Build 0)  -->
<svg version="1.1" id="Layer_1" xmlns="http://www.w3.org/2000/svg" xmlns:xlink="http://www.w3.org/1999/xlink" x="0px" y="0px"
	 viewBox="0 0 100 125" style="enable-background:new 0 0 100 125;" xml:space="preserve">
<style type="text/css">
	.st0{fill:#942B20;}
</style>
<path class="st0" d="M97.4,53.9C96.1,49,92.1,39.7,88.1,37c2.6,8.3-4.7,15-4.5,19.2c0.1,4.2,3.2,7.1,7.1,7.1s7.1-3.2,7.1-7.1
	C97.8,56.1,97.5,54.4,97.4,53.9z"/>
<path class="st0" d="M88.4,34.2c0.9-0.9,0.9-2.3,0-3.1l-6.9-6.9c-0.9-0.9-2.3-0.9-3.1,0L77.7,25l10,10L88.4,34.2z"/>
<path class="st0" d="M76.9,25.8l-3,3l-29.8-15c-0.2-0.1-0.3-0.2-0.5-0.3l-0.1,0l0,0c-0.7-0.2-1.6,0-2.2,0.5L3.5,51.8
	c-0.9,0.9-0.9,2.3,0,3.1L34,85.4c0.9,0.9,2.3,0.9,3.1,0l49.7-49.7L76.9,25.8z M49.8,69.8L9.1,49.1l23.3-23.3l40.7,20.6L49.8,69.8z"
	/>
</svg>
