<?xml version="1.0" encoding="utf-8"?>
<!-- Generator: Adobe Illustrator 21.0.0, SVG Export Plug-In . SVG Version: 6.00 Build 0)  -->
<svg version="1.1" id="Layer_1" xmlns="http://www.w3.org/2000/svg" xmlns:xlink="http://www.w3.org/1999/xlink" x="0px" y="0px"
	 viewBox="0 0 100 125" style="enable-background:new 0 0 100 125;" xml:space="preserve">
<style type="text/css">
	.st0{fill:#942B20;}
</style>
<g>
	<path class="st0" d="M53.7,29.7C42.3,29.7,33,39,33,50.3S42.3,71,53.7,71c11.4,0,20.6-9.3,20.6-20.6S65,29.7,53.7,29.7z M53.7,35.4
		c1.1,0,2,0.9,2,2c0,1.1-0.9,2-2,2s-2-0.9-2-2C51.6,36.3,52.5,35.4,53.7,35.4z M40.7,52.4c-1.1,0-2-0.9-2-2c0-1.1,0.9-2,2-2
		c1.1,0,2,0.9,2,2C42.8,51.5,41.9,52.4,40.7,52.4z M53.7,65.3c-1.1,0-2-0.9-2-2s0.9-2,2-2s2,0.9,2,2C55.7,64.4,54.8,65.3,53.7,65.3z
		 M53.7,56.2c-3.2,0-5.8-2.6-5.8-5.8c0-3.2,2.6-5.8,5.8-5.8c3.2,0,5.8,2.6,5.8,5.8C59.5,53.6,56.9,56.2,53.7,56.2z M66.6,52.4
		c-1.1,0-2-0.9-2-2c0-1.1,0.9-2,2-2c1.1,0,2,0.9,2,2C68.6,51.5,67.7,52.4,66.6,52.4z"/>
	<path class="st0" d="M30.2,92h-7.9l-0.6-0.4C8.7,81.7,1.2,66.7,1.2,50.3S8.7,19,21.8,9.1l0.6-0.4h7.9l0,23.7L29,38
		c-2,3.9-3.1,8-3.1,12.4s1,8.5,3.1,12.4l0.2,0.6l1.1,5.7L30.2,92L30.2,92z M23.8,87.8h2.3V69.2l-0.9-4.8c-2.3-4.4-3.4-9.1-3.4-14
		c0-4.9,1.1-9.7,3.4-14.1l0.9-4.5V12.9h-2.3C12,21.9,5.3,35.5,5.3,50.3S12,78.8,23.8,87.8z"/>
	<path class="st0" d="M53.7,6c-9.5,0-18.3,3-25.5,8.1V32l-1,5c-2.1,4-3.3,8.5-3.3,13.4s1.2,9.4,3.3,13.4l1,5.3v17.6
		c7.2,5.1,16,8.1,25.5,8.1C78.1,94.7,98,74.8,98,50.3S78.1,6,53.7,6z M53.7,75.9c-14.1,0-25.5-11.4-25.5-25.5s11.4-25.5,25.5-25.5
		c14.1,0,25.5,11.4,25.5,25.5S67.7,75.9,53.7,75.9z"/>
</g>
</svg>
