<?xml version="1.0" encoding="utf-8"?>
<!-- Generator: Adobe Illustrator 21.0.0, SVG Export Plug-In . SVG Version: 6.00 Build 0)  -->
<svg version="1.1"
	 id="Layer_1" xmlns:cc="http://creativecommons.org/ns#" xmlns:dc="http://purl.org/dc/elements/1.1/" xmlns:inkscape="http://www.inkscape.org/namespaces/inkscape" xmlns:rdf="http://www.w3.org/1999/02/22-rdf-syntax-ns#" xmlns:sodipodi="http://sodipodi.sourceforge.net/DTD/sodipodi-0.dtd" xmlns:svg="http://www.w3.org/2000/svg"
	 xmlns="http://www.w3.org/2000/svg" xmlns:xlink="http://www.w3.org/1999/xlink" x="0px" y="0px" viewBox="0 0 100 125"
	 style="enable-background:new 0 0 100 125;" xml:space="preserve">
<style type="text/css">
	.st0{fill:#942B20;}
</style>
<g transform="translate(0,-952.36218)">
	<path class="st0" d="M50,956.4c-25.4,0-46,20.6-46,46c0,25.4,20.6,46,46,46c25.4,0,46-20.6,46-46C96,977,75.4,956.4,50,956.4z
		 M50,966.4c16.3,0,30.1,10.9,34.5,25.8c-9.1-3.6-21.2-5.8-34.5-5.8s-25.4,2.2-34.5,5.8C19.9,977.3,33.7,966.4,50,966.4z M50,996.4
		c4.4,0,8,3.6,8,8c0,4.4-3.6,8-8,8s-8-3.6-8-8C42,999.9,45.6,996.4,50,996.4z M18,1013.4c12.2,0,22,9.8,22,22c0,0.5,0,1-0.1,1.6
		c-11.4-3.3-20.5-12.1-24.2-23.4C16.5,1013.4,17.2,1013.4,18,1013.4L18,1013.4z M82,1013.4c0.8,0,1.5,0,2.2,0.1
		c-3.7,11.3-12.7,20.1-24.2,23.4c0-0.5-0.1-1-0.1-1.6C60,1023.2,69.9,1013.4,82,1013.4L82,1013.4z"/>
</g>
</svg>
