<?xml version="1.0" encoding="utf-8"?>
<!-- Generator: Adobe Illustrator 21.0.0, SVG Export Plug-In . SVG Version: 6.00 Build 0)  -->
<svg version="1.1" id="Layer_1" xmlns="http://www.w3.org/2000/svg" xmlns:xlink="http://www.w3.org/1999/xlink" x="0px" y="0px"
	 viewBox="0 0 100 125" style="enable-background:new 0 0 100 125;" xml:space="preserve">
<style type="text/css">
	.st0{fill:#942B20;}
</style>
<path class="st0" d="M95,23.5L76.2,42.3c-1.1,0-1.7,0-2.8,0L58.6,27.5c0-1.1,0-1.7,0-2.8L77.4,5.9C66,1.7,52.6,4.5,44,14.5
	c-7.1,8.3-8.9,19.8-5.3,29.7l-33,33c0,1.1,0,1.7,0,2.8l14.1,14.1c1.1,0,1.7,0,2.8,0l32.6-32.6c10.9,4.6,24,2.4,32.8-6.4
	C96.7,46.7,99,34.2,95,23.5z"/>
</svg>
