<?xml version="1.0" encoding="utf-8"?>
<!-- Generator: Adobe Illustrator 21.0.0, SVG Export Plug-In . SVG Version: 6.00 Build 0)  -->
<svg version="1.1" id="Layer_1" xmlns="http://www.w3.org/2000/svg" xmlns:xlink="http://www.w3.org/1999/xlink" x="0px" y="0px"
	 viewBox="0 0 100 125" style="enable-background:new 0 0 100 125;" xml:space="preserve">
<style type="text/css">
	.st0{fill:#942B20;}
</style>
<path class="st0" d="M80,10c-5.5,0-10,4.5-10,10c0,3.7,2,6.9,5,8.7V45H57.5H55V28.7c0.9-0.5,1.8-1.2,2.5-2.1
	c1.6-1.8,2.5-4.1,2.5-6.6c0-5.5-4.5-10-10-10s-10,4.5-10,10c0,3.7,2,6.9,5,8.7V45H25V28.7c3-1.7,5-5,5-8.7c0-5.5-4.5-10-10-10
	s-10,4.5-10,10c0,3.7,2,6.9,5,8.7v42.7c-3,1.7-5,5-5,8.7c0,5.5,4.5,10,10,10s10-4.5,10-10c0-3.7-2-6.9-5-8.7V55h20v16.3
	c-3,1.7-5,5-5,8.7c0,5.5,4.5,10,10,10s10-4.5,10-10c0-2.5-0.9-4.8-2.5-6.6c-0.7-0.8-1.6-1.5-2.5-2.1V55h2.5H80c2.8,0,5-2.2,5-5V28.7
	c3-1.7,5-5,5-8.7C90,14.5,85.5,10,80,10z"/>
</svg>
